<svg width="370" height="144" viewBox="0 0 370 144" fill="none" xmlns="http://www.w3.org/2000/svg">
<g filter="url(#filter0_di)">
<path d="M12.3953 95.055C13.1783 107.036 30.3387 119.284 38.821 123.911C60.6793 135.234 150.07 131.033 160.836 134.869C171.602 138.704 231.957 132.129 261.972 125.007C291.986 117.884 285.816 122.415 327.902 125.337C369.987 128.259 350.71 102.068 361.802 92.3882C372.895 82.7087 370.364 76.9744 367.754 67.8428C365.144 58.7113 356.582 61.0855 361.802 48.3012C367.022 35.517 371.031 23.0113 354.392 20.2718C337.754 17.5324 320.98 16.4894 305.123 8.12219C280.07 -5.09685 259.783 10.4965 242.492 8.12224C225.201 5.74802 220.952 -0.514104 203.661 0.0337922C186.37 0.581688 189.047 11.1507 174.865 8.12219C154.108 3.6897 153.341 3.73832 136.334 4.81631L136.042 4.83483C118.751 5.93064 114.231 9.58326 100.529 4.83483C86.8265 0.086401 70.2179 1.10716 60.7568 3.66401C51.2958 6.22085 43.7534 8.09537 29.3987 14.8528C15.044 21.6101 16.9627 30.5859 16.9627 36.4302L7.50162 67.8428C5.21791 73.1392 11.4165 80.0792 12.3953 95.055Z" fill="url(#paint0_linear)"/>
<path d="M8.87903 68.4368L8.91308 68.3578L8.93789 68.2754L18.399 36.8628L18.4627 36.6511L18.4627 36.4302C18.4627 35.7588 18.4422 35.0816 18.4215 34.3976C18.3449 31.8619 18.2654 29.2336 19.216 26.4721C20.3704 23.1185 23.1394 19.4572 30.0375 16.2099C43.5329 9.85708 50.9206 7.86722 59.6968 5.50343C60.176 5.37434 60.6594 5.24415 61.1482 5.11206C70.387 2.61527 86.68 1.62316 100.038 6.25214C107.098 8.69894 111.868 8.99536 117.076 8.52022C119.014 8.34337 121.027 8.05787 123.214 7.74787C123.901 7.65042 124.605 7.55055 125.329 7.45087C128.38 7.03117 131.864 6.60257 136.137 6.33183L136.429 6.31331C144.964 5.7723 149.288 5.50145 154.069 5.8977C158.866 6.29528 164.144 7.36675 174.551 9.58911C178.265 10.3821 181.016 10.314 183.327 9.6557C185.616 9.00363 187.339 7.80413 188.969 6.63973C189.051 6.58119 189.133 6.52267 189.214 6.46417C190.781 5.34355 192.331 4.23438 194.448 3.3352C196.659 2.39581 199.548 1.66488 203.708 1.53304C212.121 1.26645 217.323 2.64679 222.602 4.40534C223.39 4.66769 224.182 4.93966 224.989 5.2166C229.641 6.81404 234.775 8.57663 242.288 9.6083C246.857 10.2357 251.561 9.66863 256.337 8.73719C258.559 8.30382 260.826 7.78527 263.113 7.26194L263.636 7.14238C266.11 6.57682 268.615 6.01085 271.174 5.52957C281.375 3.61114 292.32 3.06259 304.423 9.44883C317.564 16.383 331.372 18.3868 344.926 20.3538C348.017 20.8024 351.095 21.2491 354.149 21.7519C358.136 22.4084 360.688 23.6198 362.28 25.1058C363.841 26.5631 364.612 28.4094 364.799 30.6452C364.99 32.9213 364.571 35.5702 363.743 38.5063C362.917 41.4326 361.716 44.5453 360.414 47.7342C359.071 51.0213 358.536 53.5149 358.666 55.5591C358.801 57.6825 359.643 59.1649 360.696 60.4102C361.268 61.0867 361.854 61.6671 362.428 62.2357C363.98 63.7727 365.445 65.2237 366.311 68.2551C366.464 68.7904 366.615 69.3082 366.761 69.8104C367.902 73.7378 368.768 76.7162 368.426 79.7417C368.057 83.0052 366.218 86.544 360.816 91.258C357.595 94.0692 356.672 98.0194 356.253 101.869C356.115 103.135 356.026 104.466 355.94 105.768C355.896 106.431 355.852 107.086 355.803 107.721C355.652 109.655 355.445 111.502 355.018 113.228C354.182 116.61 352.519 119.495 348.709 121.447C344.786 123.458 338.427 124.564 328.006 123.84C317.516 123.112 310.038 122.284 304.252 121.562C302.52 121.346 300.931 121.139 299.452 120.945C296.014 120.496 293.173 120.125 290.532 119.91C282.824 119.283 276.679 119.975 261.625 123.547C246.706 127.088 224.184 130.504 204.034 132.555C193.963 133.58 184.512 134.261 176.923 134.448C173.127 134.541 169.816 134.511 167.137 134.341C164.42 134.169 162.476 133.861 161.34 133.456C159.776 132.899 157.002 132.538 153.515 132.266C149.962 131.989 145.474 131.793 140.35 131.632C135.618 131.483 130.326 131.362 124.706 131.234C124.239 131.224 123.768 131.213 123.296 131.202C117.149 131.062 110.635 130.909 104.036 130.699C90.8324 130.277 77.319 129.622 65.7548 128.369C54.1258 127.11 44.7124 125.268 39.525 122.586C35.3722 120.319 29.0804 116.176 23.75 111.149C18.3468 106.054 14.2439 100.341 13.8921 94.9572C13.3941 87.3378 11.5754 81.7388 10.1891 77.4711L10.1517 77.3558C9.44841 75.1905 8.89737 73.4718 8.64422 71.9733C8.39625 70.5055 8.46378 69.3998 8.87903 68.4368Z" stroke="url(#paint1_linear)" stroke-width="3"/>
</g>
<defs>
<filter id="filter0_di" x="-8" y="0" width="378" height="144" filterUnits="userSpaceOnUse" color-interpolation-filters="sRGB">
<feFlood flood-opacity="0" result="BackgroundImageFix"/>
<feColorMatrix in="SourceAlpha" type="matrix" values="0 0 0 0 0 0 0 0 0 0 0 0 0 0 0 0 0 0 127 0" result="hardAlpha"/>
<feOffset dx="-4" dy="4"/>
<feGaussianBlur stdDeviation="2"/>
<feComposite in2="hardAlpha" operator="out"/>
<feColorMatrix type="matrix" values="0 0 0 0 0 0 0 0 0 0 0 0 0 0 0 0 0 0 0.25 0"/>
<feBlend mode="normal" in2="BackgroundImageFix" result="effect1_dropShadow"/>
<feBlend mode="normal" in="SourceGraphic" in2="effect1_dropShadow" result="shape"/>
<feColorMatrix in="SourceAlpha" type="matrix" values="0 0 0 0 0 0 0 0 0 0 0 0 0 0 0 0 0 0 127 0" result="hardAlpha"/>
<feOffset dx="-15"/>
<feGaussianBlur stdDeviation="27.5"/>
<feComposite in2="hardAlpha" operator="arithmetic" k2="-1" k3="1"/>
<feColorMatrix type="matrix" values="0 0 0 0 0 0 0 0 0 0 0 0 0 0 0 0 0 0 0.05 0"/>
<feBlend mode="normal" in2="shape" result="effect2_innerShadow"/>
</filter>
<linearGradient id="paint0_linear" x1="214.934" y1="-16.7841" x2="214.934" y2="136" gradientUnits="userSpaceOnUse">
<stop offset="0.651042" stop-color="#FBF8F2"/>
<stop offset="1" stop-color="#EEE9DC"/>
</linearGradient>
<linearGradient id="paint1_linear" x1="214.934" y1="-16.7841" x2="214.934" y2="136" gradientUnits="userSpaceOnUse">
<stop stop-color="white"/>
<stop offset="1" stop-color="white" stop-opacity="0"/>
</linearGradient>
</defs>
</svg>
