<svg width="565" height="171" viewBox="0 0 565 171" fill="none" xmlns="http://www.w3.org/2000/svg">
<g filter="url(#filter0_di)">
<path d="M19.2856 52.7908L9.47667 84.6824C8.53804 87.7341 8.06082 90.909 8.06082 94.1018V114.744C8.06082 121.039 13.1643 126.143 19.4597 126.143C22.5928 126.143 25.5877 127.432 27.7408 129.709L41.7996 144.571C52.9269 156.335 68.6145 163 84.8071 163C92.0042 163 99.2314 161.697 105.964 159.153L126.183 151.513C140.933 145.941 157.283 146.398 171.698 152.785L175.603 154.516C188 160.01 201.892 161.142 215.015 157.729L229.208 154.037C237.624 151.848 246.415 151.515 254.973 153.06L298.181 160.862C305.998 162.273 314.017 162.119 321.773 160.407L353.565 153.391C361.565 151.625 369.842 151.517 377.885 153.072L410.599 159.397C422.726 161.742 435.281 160.287 446.55 155.23L459.136 149.583C468.821 145.238 479.803 144.766 489.826 148.265C506.148 153.963 524.294 148.953 535.381 135.687L544.945 124.245C548.756 119.685 551.868 114.585 554.18 109.11L561.593 91.5587C565.075 83.3135 565.396 74.0741 562.494 65.6073L558.785 54.7878C555.963 46.5523 548.219 41.0204 539.513 41.0204H536.494C528.694 41.0204 521.945 35.5957 520.267 27.9789C518.398 19.4942 510.308 13.8817 501.706 15.1021L484.464 17.5483C481.407 17.9819 478.454 18.9622 475.744 20.4421C471.092 22.9832 465.768 24.0253 460.502 23.4259L422.345 19.0839C417.216 18.5003 412.195 17.1976 407.429 15.2141C395.711 10.3375 382.667 9.66289 370.508 13.3045L349.528 19.5884C339.131 22.7024 328.084 22.9379 317.564 20.27L300.405 15.9186C292.657 13.9537 284.584 13.627 276.702 14.9596L232.651 22.4072C226.277 23.4848 220.213 19.2657 219.007 12.9152C217.741 6.24442 211.148 1.99256 204.548 3.59065L137.359 19.8614C125.677 22.6903 113.344 19.9453 103.965 12.4287L96.0128 6.05617C85.2809 -2.54428 69.8235 -1.80405 59.9626 7.78256L49.7646 17.6969C45.8445 21.5079 39.7133 21.8414 35.4029 18.478C31.2786 15.2598 25.4534 15.4103 21.5008 18.8373L13.2848 25.9605C8.26661 30.3114 9.0623 38.3179 14.8387 41.5959C18.7629 43.8229 20.6121 48.4781 19.2856 52.7908Z" fill="url(#paint0_linear)"/>
<path d="M10.9104 85.1234L20.7193 53.2318C22.2527 48.2466 20.1152 42.8656 15.579 40.2914C10.7033 37.5244 10.0317 30.7663 14.2674 27.0939L22.4834 19.9706C25.8943 17.0134 30.9211 16.8835 34.4802 19.6606C39.3813 23.485 46.3528 23.1058 50.8102 18.7724L61.0082 8.85808C70.3265 -0.201036 84.9334 -0.900542 95.0748 7.22668L103.027 13.5992C112.769 21.4064 125.579 24.2575 137.712 21.3192L204.901 5.04852C210.667 3.65232 216.427 7.36701 217.533 13.195C218.891 20.3478 225.722 25.0999 232.901 23.8862L276.953 16.4386C284.628 15.1408 292.491 15.459 300.037 17.3726L317.195 21.724C327.978 24.4586 339.301 24.2171 349.958 21.0253L370.939 14.7414C382.766 11.1991 395.454 11.8554 406.852 16.599C411.748 18.6365 416.907 19.9747 422.176 20.5743L460.332 24.9163C465.906 25.5506 471.54 24.4477 476.463 21.7585C479.015 20.3649 481.796 19.4418 484.674 19.0334L501.917 16.5872C509.742 15.477 517.102 20.5828 518.802 28.3015C520.631 36.6059 527.99 42.5204 536.494 42.5204H539.513C547.578 42.5204 554.752 47.645 557.367 55.2741L561.075 66.0936C563.857 74.2114 563.549 83.0699 560.211 90.9752L552.798 108.527C550.544 113.864 547.51 118.837 543.794 123.283L534.23 134.725C523.543 147.512 506.053 152.341 490.32 146.848C479.936 143.223 468.557 143.712 458.522 148.215L445.936 153.862C434.948 158.792 422.707 160.21 410.883 157.924L378.17 151.599C369.925 150.005 361.441 150.116 353.241 151.926L321.45 158.942C313.888 160.611 306.069 160.762 298.448 159.386L255.24 151.584C246.468 150 237.457 150.342 228.83 152.585L214.638 156.277C201.843 159.605 188.298 158.501 176.211 153.145L172.306 151.414C157.53 144.866 140.771 144.398 125.653 150.11L105.434 157.75C98.8728 160.229 91.8253 161.5 84.8071 161.5C69.0212 161.5 53.7294 155.001 42.8893 143.541L28.8305 128.678C26.3941 126.102 23.0051 124.643 19.4597 124.643C13.9927 124.643 9.56082 120.211 9.56082 114.744V94.1018C9.56082 91.0585 10.0157 88.0322 10.9104 85.1234Z" stroke="url(#paint1_linear)" stroke-width="3"/>
</g>
<defs>
<filter id="filter0_di" x="-6.93918" y="0.0678749" width="571.398" height="170.932" filterUnits="userSpaceOnUse" color-interpolation-filters="sRGB">
<feFlood flood-opacity="0" result="BackgroundImageFix"/>
<feColorMatrix in="SourceAlpha" type="matrix" values="0 0 0 0 0 0 0 0 0 0 0 0 0 0 0 0 0 0 127 0" result="hardAlpha"/>
<feOffset dx="-4" dy="4"/>
<feGaussianBlur stdDeviation="2"/>
<feComposite in2="hardAlpha" operator="out"/>
<feColorMatrix type="matrix" values="0 0 0 0 0 0 0 0 0 0 0 0 0 0 0 0 0 0 0.25 0"/>
<feBlend mode="normal" in2="BackgroundImageFix" result="effect1_dropShadow"/>
<feBlend mode="normal" in="SourceGraphic" in2="effect1_dropShadow" result="shape"/>
<feColorMatrix in="SourceAlpha" type="matrix" values="0 0 0 0 0 0 0 0 0 0 0 0 0 0 0 0 0 0 127 0" result="hardAlpha"/>
<feOffset dx="-15"/>
<feGaussianBlur stdDeviation="27.5"/>
<feComposite in2="hardAlpha" operator="arithmetic" k2="-1" k3="1"/>
<feColorMatrix type="matrix" values="0 0 0 0 0 0 0 0 0 0 0 0 0 0 0 0 0 0 0.05 0"/>
<feBlend mode="normal" in2="shape" result="effect2_innerShadow"/>
</filter>
<linearGradient id="paint0_linear" x1="326.072" y1="-29.3744" x2="326.072" y2="156.093" gradientUnits="userSpaceOnUse">
<stop offset="0.651042" stop-color="#FBF8F2"/>
<stop offset="1" stop-color="#EEE9DC"/>
</linearGradient>
<linearGradient id="paint1_linear" x1="326.072" y1="-29.3744" x2="326.072" y2="156.093" gradientUnits="userSpaceOnUse">
<stop stop-color="white"/>
<stop offset="1" stop-color="white" stop-opacity="0"/>
</linearGradient>
</defs>
</svg>
